<?xml version="1.0" standalone="no"?>
<!DOCTYPE svg PUBLIC "-//W3C//DTD SVG 20010904//EN"
 "http://www.w3.org/TR/2001/REC-SVG-20010904/DTD/svg10.dtd">
<svg version="1.0" xmlns="http://www.w3.org/2000/svg"
 width="257.000000pt" height="256.000000pt" viewBox="0 0 257.000000 256.000000"
 preserveAspectRatio="xMidYMid meet">
<metadata>
Created by potrace 1.10, written by Peter Selinger 2001-2011
</metadata>
<g transform="translate(0.000000,256.000000) scale(0.100000,-0.100000)"
fill="#000000" stroke="none">
<path d="M1230 2477 c-82 -40 -186 -129 -174 -149 3 -4 1 -8 -5 -8 -5 0 -29
-39 -52 -87 -43 -90 -268 -542 -458 -918 -58 -115 -135 -273 -171 -350 -80
-172 -188 -385 -247 -484 -24 -41 -45 -80 -46 -85 -1 -6 -4 -13 -7 -16 -27
-25 -80 -160 -63 -160 11 0 30 28 37 54 4 17 40 86 81 155 78 135 201 374 286
561 29 63 88 183 130 265 157 308 439 873 472 945 57 124 112 188 203 240 62
35 91 45 137 48 l59 5 61 -65 c65 -67 94 -119 207 -368 33 -74 83 -180 110
-235 27 -55 79 -170 116 -255 36 -85 75 -170 85 -188 39 -69 41 -68 -173 -76
-234 -8 -225 -13 -284 130 -71 172 -162 342 -195 362 -10 6 -25 9 -33 6 -21
-8 -60 -71 -85 -139 -12 -33 -37 -85 -55 -115 -19 -30 -57 -104 -86 -165 -29
-60 -101 -209 -161 -330 -60 -121 -109 -227 -109 -235 0 -9 -7 -26 -16 -38
-17 -25 -124 -238 -214 -428 -50 -105 -64 -126 -101 -151 -92 -63 -104 -66
-254 -70 -149 -4 -185 0 -185 21 0 7 -9 21 -21 32 -20 18 -20 18 -13 -11 11
-47 23 -64 47 -70 12 -3 87 -4 167 -2 142 3 147 4 207 36 91 49 127 86 163
170 37 86 184 384 223 453 15 26 27 52 27 58 0 11 129 287 155 330 8 14 26 50
41 80 106 215 149 301 174 345 16 28 30 57 30 65 1 21 64 143 76 147 6 2 23
-18 38 -44 14 -27 31 -55 36 -63 19 -30 130 -269 130 -280 0 -24 41 -89 68
-109 27 -19 39 -20 233 -15 112 3 210 7 218 10 18 6 9 39 -43 149 -24 49 -62
135 -85 190 -64 151 -124 275 -134 275 -4 0 -5 5 -2 10 3 6 2 10 -3 10 -5 0
-9 6 -9 13 0 14 -92 218 -102 227 -3 3 -8 14 -9 25 -4 21 -72 152 -105 200
-31 46 -89 105 -119 121 -48 25 -106 17 -198 -29z"/>
<path d="M1270 1174 c-120 -21 -140 -39 -241 -224 -40 -74 -78 -138 -83 -142
-6 -4 -8 -9 -5 -12 13 -14 205 -26 409 -26 283 -1 412 -11 473 -38 52 -23 67
-47 92 -141 15 -61 72 -200 85 -211 4 -3 23 -39 43 -81 77 -162 151 -203 353
-197 108 3 117 5 135 27 10 13 19 37 19 54 0 63 -94 312 -281 746 -61 139
-113 209 -176 231 -29 10 -129 14 -418 16 -209 1 -391 0 -405 -2z m809 -42
c66 -22 102 -75 181 -262 15 -36 56 -130 90 -210 84 -196 95 -224 146 -378 29
-88 30 -114 5 -137 -17 -15 -36 -17 -138 -13 -151 4 -190 21 -251 107 -23 33
-42 63 -42 67 0 4 -20 46 -44 94 -25 47 -61 136 -81 196 -40 123 -55 141 -142
174 -54 20 -83 22 -418 29 -199 4 -367 11 -373 15 -17 10 -10 29 48 131 28 47
50 90 50 95 0 4 18 26 40 49 31 31 49 41 87 46 27 4 53 8 58 10 25 10 752 -2
784 -13z"/>
</g>
</svg>
